<svg xmlns="http://www.w3.org/2000/svg" xml:space="preserve" viewBox="0 0 48 48"><path fill="#09090b" fill-rule="evenodd" d="M45.5 38.9c-.3-.7-.7-1.4-1.1-2s-.8-1.3-1.3-1.8c-.4-.4-.9-.8-1.4-1-1-.5-2.2-.6-3.3-.3v-.4c0-.2-.1-.4-.2-.5-.1-.2-.2-.3-.3-.5 2.5-1.4 4.5-3.4 5.9-5.8 1.2-2 1.7-4.4 1.6-6.7-.2-2.3-1-4.6-2.3-6.5-.2-.4-.7-.5-1-.3-.4.2-.5.7-.3 1.1 1.1 1.7 1.7 3.7 1.8 5.7 0 2-.6 4-1.6 5.7-2.5 3.9-6.6 6.4-11.2 6.7-4.5.7-9-.7-12.3-3.8-3.1-3-4.4-7.4-3.2-11.6 1.1-4.2 4-7.7 8-9.6 2.2-1 4.6-1.4 7-1.2s4.7 1 6.8 2.3c.3.2.7 0 .9-.3.1-.3.1-.6-.2-.8-2.2-1.5-4.7-2.5-7.3-2.8-2.7-.4-5.5 0-8 1.1-4.6 2-8 5.9-9.5 10.7-1.4 5 0 10.4 3.7 14 3.9 3.6 9.2 5.2 14.5 4.3 1.5-.2 3.1-.7 4.5-1.3v.1c.1.2.1.4.2.5.1.2.2.3.3.5.1.1.3.2.4.4-1 .9-1.6 2.2-1.6 3.6 0 .8.2 1.5.5 2.2.4.8.9 1.6 1.5 2.3l3.1 4.7c.2.3.6.4.9.2s.4-.6.2-.9l-2.5-5c-.4-.7-.8-1.4-1.1-2.2-.1-.4-.2-.8-.2-1.2 0-.8.4-1.5 1-2 .6-.4 1.5-.5 2.2-.1.4.1.7.4 1 .6.3.3.6.7.9 1.1.6.8 1.1 1.6 1.6 2.4.8 1.3 1.5 2.6 2.2 3.9.2.4.7.5 1.1.3.2-.1.3-.2.4-.4s0-.4-.1-.6c-.8-1.7-1.4-3.3-2.2-4.8m-30.9-8.6-1.5 3.1c-.5.6-1 1.3-1.4 2-.2-.2-.3-.4-.4-.5-.7-.5-1.3-1.1-2-1.7-.6-.6-1.2-1.2-1.7-1.8-.1-.2-.8-1-1.3-1.7.4-.3.7-.7 1-1.1.5-1.4-.2-2.9-1.6-3.5-.2 0-.3-.1-.5-.1-1.6-.2-3 .9-3.3 2.5v.4c.1.9.7 1.6 1.5 2-.3.7-.6 1.8-.7 2L.1 39.1c-.2.3-.1.7.2.9 0 0 .1 0 .1.1.3.2.7 0 .9-.3L4.7 33c0-.1.1-.6.2-1 .3.5.6 1.2.7 1.3.6.7 1.3 1.4 2 2S9 36.5 9.8 37l.7.6c-.4.4-.6 1-.6 1.6.2 1.4 1.3 2.4 2.7 2.4 1.1 0 2.1-.6 2.5-1.6.4-1.3-.2-2.7-1.4-3.3.4-.8.7-1.7.9-2.6l1.1-3.1c.2-.4 0-.8-.4-1-.1-.2-.6-.1-.7.3" clip-rule="evenodd"/><path fill="#2b7fff" fill-rule="evenodd" d="M41 7.1h.3c-1.2 1.8-2.5 3.6-3.8 5.4s-3 4-4.6 6l-2.5 3.1-.2.1-1.7-1.5c-.4-.4-.9-.7-1.3-1.1-1-.8-2-1.5-3.1-2.3l-.2-.2c.3-.3.5-.5.8-.9.5-1.4-.2-2.9-1.5-3.4-.1-.1-.3-.1-.4-.1-1.5-.2-3 .8-3.2 2.4v.3c.1.9.6 1.6 1.3 2-.1.2-.2.3-.3.5-.5 1.1-.9 2.6-1.2 3.3l-1.6 3.5c-.1.4.1.7.5.8.3.1.6 0 .7-.2l1.8-3.4c.3-.5.7-1.7 1.2-2.7.1-.2.2-.4.3-.5l.6.3 4 3.5 2.2 1.9c-.5.4-.7 1.1-.7 1.7.2 1.4 1.3 2.4 2.7 2.3 1.1 0 2-.6 2.5-1.6.4-1.2-.1-2.4-1.1-3.1l.1-.2 2.6-3.2c1.5-2.1 2.9-4.1 4.2-6.3 1.4-2.1 2.6-4 3.8-6.1l.3.1c1.3.4 2.8 0 3.8-1 .4-.5.8-1.5.7-2.6-.1-.9-.5-1.8-1.2-2.5S45.3.3 44.4.1c-1.5-.2-3 .4-4 1.5-1.2 1.1-1.4 2.8-.6 4.2.2.5.7 1 1.2 1.3m1-3.7c.5-.5 1.3-.8 2-.7.4 0 .8.2 1.2.5.3.2.6.6.7 1 .1.5 0 1-.3 1.4-.1.2-1.2 1.7-3.4.3-.3-.2-.6-.5-.7-.8-.2-.7 0-1.3.5-1.7" clip-rule="evenodd"/></svg>